<?xml version="1.0" encoding="UTF-8" standalone="no"?>
<svg width="75px" height="49px" viewBox="0 0 75 49" version="1.1" xmlns="http://www.w3.org/2000/svg" xmlns:xlink="http://www.w3.org/1999/xlink">
    <!-- Generator: Sketch 3.8.3 (29802) - http://www.bohemiancoding.com/sketch -->
    <title>book-opened-symmetrical-shape</title>
    <desc>Created with Sketch.</desc>
    <defs></defs>
    <g id="Landing" stroke="none" stroke-width="1" fill="none" fill-rule="evenodd">
        <g id="Custom-Preset-Copy-6" fill="#FFFFFF">
            <path d="M71.1863868,4.79419491 L66.2293257,4.79419491 C59.0473919,1.62475171 52.946883,0 48.0820611,0 C41.7827608,0 38.8326972,2.70948933 37.5031807,4.77692702 C36.1673028,2.70948933 33.2236005,0 26.9243003,0 C22.0594784,0 15.9589695,1.63103095 8.77226463,4.79419491 L3.81361323,4.79419491 C1.70801527,4.79419491 2.27373675e-13,6.48173896 2.27373675e-13,8.56016531 L2.27373675e-13,45.2293202 C2.27373675e-13,47.3140258 1.70801527,49 3.81361323,49 L71.1863868,49 C73.2919847,49 75,47.3140258 75,45.2293202 L75,8.56016531 C75,6.48173896 73.2919847,4.79419491 71.1863868,4.79419491 L71.1863868,4.79419491 Z M36.466285,7.08140578 C36.4599237,7.13634907 36.4535623,7.19914141 36.4535623,7.25408471 L36.4535623,41.8448132 C34.7821247,39.937496 31.9863232,38.4838534 27.3091603,38.4838534 C18.9599237,38.4838534 8.47964377,43.0033318 4.73441476,44.7505286 L4.73441476,8.76894983 C7.9389313,7.15518678 10.9335242,5.84282694 13.7229644,4.79419491 C18.8486005,2.86960979 23.2713104,1.88220029 26.9179389,1.88220029 C31.3963104,1.88220029 33.8374682,3.35939002 35.1606234,4.79419491 C35.9255725,5.61677452 36.3167939,6.43150509 36.5028626,6.92913436 C36.4837786,7.01390402 36.4726463,7.07512655 36.466285,7.08140578 L36.466285,7.08140578 Z M70.2671756,44.7505286 C66.5203562,43.0033318 56.0400763,38.4838534 47.6908397,38.4838534 C43.0136768,38.4838534 40.2178753,39.937496 38.5464377,41.8448132 C38.4907761,41.912315 38.4160305,41.9798167 38.360369,42.0473185 L38.360369,7.36397129 C38.3794529,7.27763183 38.4223919,7.13163965 38.4971374,6.94012302 C38.6832061,6.43778433 39.0871501,5.62305376 39.8568702,4.79419491 C41.1863868,3.35939002 43.6354962,1.88220029 48.0820611,1.88220029 C51.7286896,1.88220029 56.1529898,2.86960979 61.2770356,4.79419491 C64.0664758,5.84282694 67.0610687,7.16146601 70.2671756,8.76894983 L70.2671756,44.7505286 Z" id="book-opened-symmetrical-shape"></path>
        </g>
    </g>
</svg>