<?xml version="1.0" encoding="UTF-8" standalone="no"?>
<svg width="21px" height="39px" viewBox="0 0 21 39" version="1.1" xmlns="http://www.w3.org/2000/svg" xmlns:xlink="http://www.w3.org/1999/xlink">
    <!-- Generator: Sketch 3.8.3 (29802) - http://www.bohemiancoding.com/sketch -->
    <title>facebook-logo</title>
    <desc>Created with Sketch.</desc>
    <defs></defs>
    <g id="Landing" stroke="none" stroke-width="1" fill="none" fill-rule="evenodd">
        <g id="Custom-Preset-Copy" fill="#FFFFFF">
            <path d="M20.006,0.5585 L15.0195,0.551 C9.418,0.551 5.797,4.2655 5.797,10.0135 L5.797,14.377 L0.783,14.377 C0.3515,14.377 0,14.7265 0,15.16 L0,21.4825 C0,21.914 0.3515,22.2655 0.783,22.2655 L5.797,22.2655 L5.797,38.217 C5.797,38.6485 6.1485,39 6.582,39 L13.121,39 C13.5545,39 13.906,38.6485 13.906,38.217 L13.906,22.2655 L19.7675,22.2655 C20.201,22.2655 20.551,21.914 20.551,21.4825 L20.5545,15.16 C20.5545,14.953 20.4705,14.754 20.324,14.6055 C20.1775,14.459 19.9785,14.377 19.7695,14.377 L13.906,14.377 L13.906,10.678 C13.906,8.9005 14.33,7.998 16.6445,7.998 L20.004,7.996 C20.4375,7.996 20.787,7.6445 20.787,7.213 L20.787,1.344 C20.787,0.91 20.4375,0.5605 20.006,0.5585 L20.006,0.5585 Z" id="facebook-logo"></path>
        </g>
    </g>
</svg>