<?xml version="1.0" encoding="UTF-8" standalone="no"?>
<svg width="19px" height="34px" viewBox="0 0 19 34" version="1.1" xmlns="http://www.w3.org/2000/svg" xmlns:xlink="http://www.w3.org/1999/xlink">
    <!-- Generator: Sketch 3.8.3 (29802) - http://www.bohemiancoding.com/sketch -->
    <title>facebook-logo</title>
    <desc>Created with Sketch.</desc>
    <defs></defs>
    <g id="List-Detail" stroke="none" stroke-width="1" fill="none" fill-rule="evenodd">
        <g id="Desktop/Front-Facing-List-Bagels-Copy" transform="translate(-715.000000, -534.000000)" fill="#457BD9">
            <path d="M732.649198,534.006466 L728.364842,534 C723.552085,534 720.440954,537.202623 720.440954,542.158521 L720.440954,545.920709 L716.132971,545.920709 C715.762231,545.920709 715.460225,546.222046 715.460225,546.595807 L715.460225,552.047035 C715.460225,552.419073 715.762231,552.722134 716.132971,552.722134 L720.440954,552.722134 L720.440954,566.475438 C720.440954,566.847475 720.74296,567.150537 721.115419,567.150537 L726.733668,567.150537 C727.106128,567.150537 727.408133,566.847475 727.408133,566.475438 L727.408133,552.722134 L732.44428,552.722134 C732.81674,552.722134 733.117457,552.419073 733.117457,552.047035 L733.120464,546.595807 C733.120464,546.417333 733.048292,546.245756 732.92242,546.11772 C732.796549,545.991409 732.62557,545.920709 732.445999,545.920709 L727.408133,545.920709 L727.408133,542.731449 C727.408133,541.198897 727.77243,540.420766 729.761027,540.420766 L732.647479,540.419042 C733.019938,540.419042 733.320226,540.11598 733.320226,539.743943 L733.320226,534.683721 C733.320226,534.309528 733.019938,534.008191 732.649198,534.006466 L732.649198,534.006466 Z" id="facebook-logo"></path>
        </g>
    </g>
</svg>