<?xml version="1.0" encoding="UTF-8" standalone="no"?>
<svg width="70px" height="70px" viewBox="0 0 70 70" version="1.1" xmlns="http://www.w3.org/2000/svg" xmlns:xlink="http://www.w3.org/1999/xlink">
    <!-- Generator: Sketch 3.8.3 (29802) - http://www.bohemiancoding.com/sketch -->
    <title>Group 2</title>
    <desc>Created with Sketch.</desc>
    <defs>
        <circle id="path-1" cx="35" cy="35" r="35"></circle>
        <polygon id="path-3" points="0.0394871795 0.655715278 0.0394871795 45.969162 12.8359658 45.969162 12.8359658 0.655715278 0.0394871795 0.655715278"></polygon>
    </defs>
    <g id="List-Detail" stroke="none" stroke-width="1" fill="none" fill-rule="evenodd">
        <g id="Desktop/Front-Facing-List-Bagels" transform="translate(-518.000000, -195.000000)">
            <g id="Group-2" transform="translate(518.000000, 195.000000)">
                <mask id="mask-2" fill="white">
                    <use xlink:href="#path-1"></use>
                </mask>
                <use id="Oval-3" fill="#457BD9" xlink:href="#path-1"></use>
                <g id="restaurant-interface-symbol-of-fork-and-knife-couple" mask="url(#mask-2)">
                    <g transform="translate(21.000000, 11.666667)">
                        <g id="Group-3" stroke-width="1" fill="none" transform="translate(0.000000, 0.664352)">
                            <mask id="mask-4" fill="white">
                                <use xlink:href="#path-3"></use>
                            </mask>
                            <g id="Clip-2"></g>
                            <path d="M4.14681197,16.4473588 L4.14681197,43.3821759 C4.14681197,44.0824028 4.40150427,44.6922778 4.91023077,45.2038287 C5.40908547,45.7074074 6.00007692,45.9611898 6.68123077,45.969162 C7.36304274,45.9611898 7.95403419,45.7074074 8.45288889,45.2038287 C8.96161538,44.6922778 9.21630769,44.0824028 9.21630769,43.3821759 L9.21630769,16.4473588 C9.97709402,16.179625 12.8359658,13.607919 12.8359658,12.782794 L12.8359658,1.95053704 C12.8359658,1.60042361 12.7076325,1.29681481 12.4555726,1.03971065 C12.2008803,0.783270833 11.9001197,0.655715278 11.5532906,0.655715278 C11.2031709,0.655715278 10.9024103,0.783270833 10.6510085,1.03971065 C10.3963162,1.29681481 10.2679829,1.60042361 10.2679829,1.95053704 L10.2679829,10.3745185 C10.2679829,10.7246319 10.1416239,11.0282407 9.88693162,11.2853449 C9.63289744,11.5424491 9.33213675,11.6693403 8.98464957,11.6693403 C8.63782051,11.6693403 8.33705983,11.5424491 8.08236752,11.2853449 C7.82833333,11.0282407 7.70197436,10.7246319 7.70197436,10.3745185 L7.70197436,1.95053704 C7.70197436,1.60042361 7.57364103,1.29681481 7.3215812,1.03971065 C7.06688889,0.783270833 6.76612821,0.655715278 6.41929915,0.655715278 C6.06983761,0.655715278 5.76907692,0.783270833 5.51438462,1.03971065 C5.26232479,1.29681481 5.13399145,1.60042361 5.13399145,1.95053704 L5.13399145,10.3745185 C5.13399145,10.7246319 5.00763248,11.0282407 4.75359829,11.2853449 C4.49890598,11.5424491 4.1981453,11.6693403 3.85131624,11.6693403 C3.50382906,11.6693403 3.20306838,11.5424491 2.94837607,11.2853449 C2.69434188,11.0282407 2.56798291,10.7246319 2.56798291,10.3745185 L2.56798291,1.95053704 C2.56798291,1.60042361 2.43964957,1.29681481 2.18495726,1.03971065 C1.93355556,0.783270833 1.63016239,0.655715278 1.28267521,0.655715278 C0.935846154,0.655715278 0.63508547,0.783270833 0.380393162,1.03971065 C0.128333333,1.29681481 0,1.60042361 0,1.95053704 L0,12.782794 C0,13.607919 3.38339316,16.1769676 4.14681197,16.4473588 L4.14681197,16.4473588 Z" id="Fill-1" fill="#FFFFFF" mask="url(#mask-4)"></path>
                        </g>
                        <path id="Fill-4" fill="#1D1D1B"></path>
                        <path d="M17.6251026,23.581169 L20.5379402,23.581169 L20.5379402,44.5780093 C20.5379402,45.2789005 20.7926325,45.8861181 21.301359,46.4003264 C21.8002137,46.9032407 22.3912051,47.1576875 23.0730171,47.1656597 C23.7541709,47.1576875 24.3451624,46.9032407 24.8466496,46.4003264 C25.3527436,45.8861181 25.6074359,45.2789005 25.6074359,44.5780093 L25.6074359,1.55126157 C25.6074359,1.2004838 25.481735,0.896875 25.2270427,0.640435185 C24.9723504,0.385988426 24.6715897,0.256439815 24.3247607,0.256439815 L23.4020769,0.256439815 C21.6356838,0.256439815 20.1266154,0.892224537 18.8696068,2.15847917 C17.6125983,3.4273912 16.9827778,4.95340741 16.9827778,6.73652778 L16.9827778,22.9320972 C16.9827778,23.1088148 17.0466154,23.2622801 17.1756068,23.3891713 C17.3013077,23.5160625 17.4507009,23.581169 17.6251026,23.581169 L17.6251026,23.581169 Z" id="Fill-5" fill="#FFFFFF"></path>
                    </g>
                </g>
            </g>
        </g>
    </g>
</svg>