<?xml version="1.0" encoding="UTF-8" standalone="no"?>
<svg width="52px" height="34px" viewBox="0 0 52 34" version="1.1" xmlns="http://www.w3.org/2000/svg" xmlns:xlink="http://www.w3.org/1999/xlink">
    <!-- Generator: Sketch 3.8.3 (29802) - http://www.bohemiancoding.com/sketch -->
    <title>GooglePlus</title>
    <desc>Created with Sketch.</desc>
    <defs>
        <polygon id="path-1" points="32.2101576 32.9892473 0 32.9892473 0 0.13083871 32.2101576 0.13083871 32.2101576 32.9892473"></polygon>
    </defs>
    <g id="Landing" stroke="none" stroke-width="1" fill="none" fill-rule="evenodd">
        <g id="Custom-Preset-Copy-3">
            <g id="GooglePlus">
                <g id="Group-3" transform="translate(0.000000, 0.428301)">
                    <mask id="mask-2" fill="white">
                        <use xlink:href="#path-1"></use>
                    </mask>
                    <g id="Clip-2"></g>
                    <path d="M0.0436688172,15.7382194 C0.185131183,7.27452043 7.96612043,-0.137995699 16.4298194,0.144369892 C20.4847011,-0.0435010753 24.2969161,1.72114409 27.4029376,4.19981075 C26.0777763,5.70613333 24.7050882,7.15710108 23.2379054,8.51413333 C19.504529,5.93314409 14.1938194,5.19619785 10.460443,8.17697204 C5.11842151,11.8712086 4.87575484,20.5937892 10.0131312,24.5703914 C15.0096043,29.1044559 24.4540344,26.8528 25.8345505,19.9110796 C22.704486,19.8641118 19.5671527,19.9110796 16.4376473,19.8093161 C16.4298194,17.9423484 16.4219914,16.0753806 16.4298194,14.2084129 C21.6616903,14.192757 26.8935613,14.184929 32.1332602,14.2240688 C32.4469376,18.616671 31.8665505,23.2916387 29.1681419,26.9238108 C25.0813892,32.6734452 16.876572,34.3519828 10.4760989,31.888972 C4.05214194,29.4416172 -0.497578495,22.6564559 0.0436688172,15.7382194" id="Fill-1" fill="#FFFFFF" mask="url(#mask-2)"></path>
                </g>
                <path d="M42.3379527,9.92283011 L47.0050925,9.92283011 C47.0129204,11.4839484 47.0207484,13.0523355 47.0364043,14.6134538 C48.5975226,14.6291097 50.1659097,14.6291097 51.727028,14.6447656 L51.727028,19.3119054 C50.1659097,19.3275613 48.6053505,19.3353892 47.0364043,19.3510452 C47.0207484,20.9199914 47.0129204,22.4811097 47.0050925,24.0416688 L42.3301247,24.0416688 C42.3144688,22.4811097 42.3144688,20.9199914 42.2988129,19.3588731 C40.7376946,19.3432172 39.1687484,19.3275613 37.6081892,19.3119054 L37.6081892,14.6447656 C39.1687484,14.6291097 40.7298667,14.6212817 42.2988129,14.6134538 C42.3066409,13.0445075 42.3222968,11.4839484 42.3379527,9.92283011" id="Fill-4" fill="#FFFFFF"></path>
            </g>
        </g>
    </g>
</svg>