<?xml version="1.0" encoding="UTF-8" standalone="no"?>
<svg width="64px" height="76px" viewBox="0 0 64 76" version="1.1" xmlns="http://www.w3.org/2000/svg" xmlns:xlink="http://www.w3.org/1999/xlink">
    <!-- Generator: Sketch 3.8.3 (29802) - http://www.bohemiancoding.com/sketch -->
    <title>hot-coffee-cup-on-a-plate</title>
    <desc>Created with Sketch.</desc>
    <defs>
        <polygon id="path-1" points="32.011 0.265 0.408 0.265 0.408 75.99325 63.614 75.99325 63.614 0.265 32.011 0.265"></polygon>
    </defs>
    <g id="Landing" stroke="none" stroke-width="1" fill="none" fill-rule="evenodd">
        <g id="Custom-Preset-Copy-7">
            <g id="hot-coffee-cup-on-a-plate">
                <mask id="mask-2" fill="white">
                    <use xlink:href="#path-1"></use>
                </mask>
                <g id="Clip-2"></g>
                <path d="M57.4804,69.007 L1.1424,69.007 C0.5848,69.007 0.1088,69.3985 -1.37542755e-13,69.979 C-0.0816,70.5325 0.2652,71.059 0.8228,71.221 L16.9184,75.93925 C17.0272,75.99325 17.136,75.99325 17.238,75.99325 L41.3848,75.99325 C41.4936,75.99325 41.5956,75.99325 41.7044,75.93925 L57.8,71.221 C58.3576,71.059 58.6772,70.5325 58.5956,69.979 C58.514,69.3985 58.038,69.007 57.4804,69.007 L57.4804,69.007 Z" id="Fill-1" fill="#FFFFFF" mask="url(#mask-2)"></path>
                <path d="M51.0544,32.8 L51.4012,26.6035 C51.4216,26.28625 51.3196,25.97575 51.1088,25.75975 C50.8912,25.5235 50.5784,25.39525 50.286,25.39525 L8.3436,25.39525 C8.0512,25.39525 7.7316,25.5235 7.514,25.73275 C7.3032,25.97575 7.2012,26.28625 7.2216,26.5765 L9.486,66.1585 C9.5336,66.766 10.0164,67.2385 10.6216,67.2385 L48.0012,67.2385 C48.6064,67.2385 49.1164,66.766 49.1436,66.1585 L49.5108,59.827 C49.7488,59.854 50.014,59.881 50.286,59.881 C57.6436,59.881 63.614,53.7925 63.614,46.3 C63.614,39.1045 58.038,33.19825 51.0544,32.8 L51.0544,32.8 Z M15.062,63.283 L14.9532,63.283 C14.0488,63.283 13.3076,62.5675 13.2532,61.6765 L11.3696,31.1395 C11.3152,30.21475 12.036,29.425 12.9608,29.35075 C13.9468,29.29675 14.7152,30.0055 14.7696,30.93025 L16.6804,61.4605 C16.7348,62.41225 16.014,63.202 15.062,63.283 L15.062,63.283 Z M50.286,55.372 C50.0956,55.372 49.9392,55.318 49.7488,55.318 L50.7892,37.336 C55.386,37.59925 59.0512,41.50075 59.0512,46.327 C59.0512,51.3085 55.114,55.372 50.286,55.372 L50.286,55.372 Z" id="Fill-3" fill="#FFFFFF" mask="url(#mask-2)"></path>
                <path d="M15.6468,16.18825 C16.4152,19.61725 20.1348,21.22375 20.5564,21.41275 L21.862,18.274 C21.2228,18.01075 19.312,16.93075 18.9652,15.4525 C18.7544,14.4535 19.2848,13.2385 20.5564,11.89525 C22.6576,9.62725 23.4804,7.41325 22.9772,5.2735 C22.1816,1.9255 18.4892,0.42025 18.0608,0.265 L16.8436,3.43075 C16.864,3.43075 19.2576,4.40275 19.6316,6.03625 C19.924,7.25125 18.938,8.6215 18.0336,9.57325 C15.9664,11.81425 15.164,14.02825 15.6468,16.18825 L15.6468,16.18825 Z" id="Fill-4" fill="#FFFFFF" mask="url(#mask-2)"></path>
                <path d="M24.7588,16.18825 C25.5272,19.61725 29.2468,21.22375 29.6684,21.41275 L30.974,18.274 C30.3348,18.01075 28.424,16.93075 28.1044,15.4525 C27.8664,14.4535 28.3968,13.2385 29.6684,11.89525 C31.7696,9.62725 32.5924,7.41325 32.0892,5.2735 C31.2936,1.9255 27.6012,0.42025 27.1728,0.265 L25.9488,3.43075 C25.976,3.43075 28.3696,4.40275 28.7436,6.03625 C29.036,7.25125 28.05,8.6215 27.1456,9.57325 C25.0784,11.81425 24.276,14.02825 24.7588,16.18825 L24.7588,16.18825 Z" id="Fill-5" fill="#FFFFFF" mask="url(#mask-2)"></path>
                <path d="M33.864,16.18825 C34.6392,19.61725 38.3588,21.22375 38.7804,21.41275 L40.086,18.274 C39.4468,18.01075 37.536,16.93075 37.2164,15.4525 C36.9784,14.4535 37.5088,13.2385 38.7804,11.89525 C40.8816,9.62725 41.7044,7.41325 41.2012,5.2735 C40.3988,1.9255 36.686,0.42025 36.2848,0.265 L35.0608,3.43075 C35.088,3.43075 37.4816,4.40275 37.8488,6.03625 C38.1412,7.25125 37.162,8.6215 36.2576,9.57325 C34.1836,11.81425 33.388,14.02825 33.864,16.18825 L33.864,16.18825 Z" id="Fill-6" fill="#FFFFFF" mask="url(#mask-2)"></path>
            </g>
        </g>
    </g>
</svg>