<?xml version="1.0" encoding="UTF-8" standalone="no"?>
<svg width="159px" height="59px" viewBox="0 0 159 59" version="1.1" xmlns="http://www.w3.org/2000/svg" xmlns:xlink="http://www.w3.org/1999/xlink">
    <!-- Generator: Sketch 3.8.3 (29802) - http://www.bohemiancoding.com/sketch -->
    <title>Logo Medoum</title>
    <desc>Created with Sketch.</desc>
    <defs>
        <polygon id="path-1" points="0 0.196296296 0 56.867037 20.5926044 56.867037 20.5926044 0.196296296 4.22519964e-20 0.196296296"></polygon>
        <polygon id="path-3" points="0.712927941 58.1878307 20.5403838 58.1878307 20.5403838 0.277969577 0.712927941 0.277969577"></polygon>
        <polygon id="path-5" points="0.672788235 57.4867725 20.4246412 57.4867725 20.4246412 0.196506614 0.672788235 0.196506614"></polygon>
        <polygon id="path-7" points="0 58.6109193 158.424794 58.6109193 158.424794 0.700707672 0 0.700707672"></polygon>
    </defs>
    <g id="Landing" stroke="none" stroke-width="1" fill="none" fill-rule="evenodd">
        <g id="Custom-Preset-Copy-9">
            <g id="Logo-Medoum">
                <g id="Group-3" transform="translate(0.000000, 1.124147)">
                    <mask id="mask-2" fill="white">
                        <use xlink:href="#path-1"></use>
                    </mask>
                    <g id="Clip-2"></g>
                    <path d="M14.8514574,10.4569841 C14.8514574,7.08279101 13.4726779,5.49910053 9.79931029,5.49910053 L5.818075,5.49910053 L5.818075,24.8476058 L9.87491324,24.8476058 C13.2435309,24.8476058 14.8514574,23.4020238 14.8514574,19.8904233 L14.8514574,10.4569841 Z M-0.000233823529,56.867037 L-0.000233823529,0.196296296 L9.79931029,0.196296296 C17.1476044,0.196296296 20.5926044,3.43308201 20.5926044,10.4569841 L20.5926044,19.7530159 C20.5926044,26.8449206 17.1476044,29.9435979 9.87491324,29.9435979 L5.818075,29.9435979 L5.818075,56.867037 L-0.000233823529,56.867037 Z" id="Fill-1" fill="#457BD9" mask="url(#mask-2)"></path>
                </g>
                <g id="Group-6" transform="translate(21.823529, 0.423089)">
                    <mask id="mask-4" fill="white">
                        <use xlink:href="#path-3"></use>
                    </mask>
                    <g id="Clip-5"></g>
                    <path d="M14.722075,9.9182209 C14.722075,7.09505952 13.4212368,5.58077381 10.588075,5.58077381 C7.90923676,5.58077381 6.53123676,7.09505952 6.53123676,9.9182209 L6.53123676,48.548631 C6.53123676,51.5084987 7.90923676,53.0234854 10.588075,53.0234854 C13.4212368,53.0234854 14.722075,51.5084987 14.722075,48.548631 L14.722075,9.9182209 Z M0.712927941,9.9182209 C0.712927941,3.6521627 4.00516324,0.277969577 10.588075,0.277969577 C17.3253103,0.277969577 20.5403838,3.6521627 20.5403838,9.9182209 L20.5403838,48.548631 C20.5403838,54.8139881 17.3253103,58.1881812 10.588075,58.1881812 C4.00516324,58.1881812 0.712927941,54.8139881 0.712927941,48.548631 L0.712927941,9.9182209 Z" id="Fill-4" fill="#457BD9" mask="url(#mask-4)"></path>
                </g>
                <path d="M59.9104206,11.581131 C59.9104206,8.20693783 58.5316412,6.62324735 54.8582735,6.62324735 L50.8770382,6.62324735 L50.8770382,25.9717526 L54.9338765,25.9717526 C58.3024941,25.9717526 59.9104206,24.5261706 59.9104206,21.0145701 L59.9104206,11.581131 Z M45.0587294,57.9911839 L45.0587294,1.32044312 L54.8582735,1.32044312 C62.2065676,1.32044312 65.6515676,4.55722884 65.6515676,11.581131 L65.6515676,20.8771627 C65.6515676,27.9690675 62.2065676,31.0677447 54.9338765,31.0677447 L50.8770382,31.0677447 L50.8770382,57.9911839 L45.0587294,57.9911839 Z" id="Fill-7" fill="#457BD9"></path>
                <g id="Group-11" transform="translate(67.029412, 1.124147)">
                    <mask id="mask-6" fill="white">
                        <use xlink:href="#path-5"></use>
                    </mask>
                    <g id="Clip-10"></g>
                    <path d="M14.6063324,0.196506614 L20.4246412,0.196506614 L20.4246412,47.8474325 C20.4246412,54.3196019 17.1324059,57.4869828 10.5487147,57.4869828 C3.96502353,57.4869828 0.672788235,54.3196019 0.672788235,47.8474325 L0.672788235,0.196506614 L6.49109706,0.196506614 L6.49109706,47.8474325 C6.49109706,50.8073003 7.86909706,52.3229881 10.5487147,52.3229881 C13.2275529,52.3229881 14.6063324,50.8073003 14.6063324,47.8474325 L14.6063324,0.196506614 Z" id="Fill-9" fill="#457BD9" mask="url(#mask-6)"></path>
                </g>
                <polygon id="Fill-12" fill="#1D3557" points="90.2473868 57.9913241 90.2473868 1.32058333 96.0656956 1.32058333 96.0656956 52.8273294 107.318843 52.8273294 107.318843 57.9913241"></polygon>
                <mask id="mask-8" fill="white">
                    <use xlink:href="#path-7"></use>
                </mask>
                <g id="Clip-15"></g>
                <polygon id="Fill-14" fill="#1D3557" mask="url(#mask-8)" points="109.285221 57.9911839 115.103529 57.9911839 115.103529 1.32044312 109.285221 1.32044312"></polygon>
                <path d="M131.393313,41.1899034 C131.393313,37.8164114 131.010622,36.9898638 129.479078,35.3367685 C126.416769,32.0319802 123.35524,29.8972579 119.680313,25.9033294 C117.689696,23.7686071 117.613313,21.7032897 117.613313,18.5359087 L117.613313,10.0657235 C117.613313,3.73096164 120.828387,0.700988095 127.412857,0.700988095 C134.37846,0.700988095 136.981696,3.73096164 136.981696,10.0657235 L136.981696,20.3951151 L131.546078,20.3951151 L131.546078,10.7548638 C131.546078,7.93170238 130.704313,6.00379233 127.565622,6.00379233 C124.73324,6.00379233 123.508004,7.24256217 123.508004,10.0657235 L123.508004,18.466504 C123.508004,20.8080384 123.737931,21.6338849 124.886004,22.8733558 C127.948313,26.3162526 131.163387,28.657787 134.455622,32.1006839 C136.751769,34.510922 137.211622,36.5762394 137.211622,41.1211997 L137.211622,49.2464643 C137.211622,55.2370066 134.37846,58.6111997 127.412857,58.6111997 C120.59846,58.6111997 117.613313,55.2370066 117.613313,49.2464643 L117.613313,37.1966759 L123.201696,37.1966759 L123.201696,48.4886204 C123.201696,51.3811865 124.197784,53.446504 127.259313,53.446504 C130.168857,53.446504 131.393313,52.000922 131.393313,49.2464643 L131.393313,41.1899034 Z" id="Fill-16" fill="#1D3557" mask="url(#mask-8)"></path>
                <polygon id="Fill-17" fill="#1D3557" mask="url(#mask-8)" points="145.639635 57.9913241 145.639635 6.62338757 138.596871 6.62338757 138.596871 1.32058333 158.424326 1.32058333 158.424326 6.62338757 151.381562 6.62338757 151.381562 57.9913241"></polygon>
            </g>
        </g>
    </g>
</svg>