<?xml version="1.0" encoding="UTF-8" standalone="no"?>
<svg width="66px" height="73px" viewBox="0 0 66 73" version="1.1" xmlns="http://www.w3.org/2000/svg" xmlns:xlink="http://www.w3.org/1999/xlink">
    <!-- Generator: Sketch 3.8.3 (29802) - http://www.bohemiancoding.com/sketch -->
    <title>piece-of-pizza</title>
    <desc>Created with Sketch.</desc>
    <defs></defs>
    <g id="Landing" stroke="none" stroke-width="1" fill="none" fill-rule="evenodd">
        <g id="Custom-Preset-Copy-5" fill="#FFFFFF">
            <g id="piece-of-pizza" transform="translate(33.000000, 36.500000) scale(1, -1) translate(-33.000000, -36.500000) ">
                <path d="M32.8233043,61.9368284 L32.8233043,61.9368284 C38.9906087,61.9368284 45.2702609,61.0689738 51.4848696,59.2295959 C54.5005217,58.3498935 57.3417391,57.2036145 60.1001739,55.9536669 L32.8233043,0.0466508876 L5.54347826,55.9536669 C8.30486957,57.2036145 11.146087,58.3498935 14.1469565,59.2295959 C20.3733913,61.0689738 26.6441739,61.9368284 32.8233043,61.9368284 L32.8233043,61.9368284 Z M42.2812174,41.3304649 C44.681913,41.3304649 46.6243478,43.2735114 46.6243478,45.6815858 C46.6243478,48.0866982 44.681913,50.0297447 42.2812174,50.0297447 C39.8893913,50.0297447 37.938087,48.0748504 37.938087,45.6815858 C37.938087,43.2735114 39.8775652,41.3304649 42.2812174,41.3304649 L42.2812174,41.3304649 Z M34.7746087,19.5333931 C36.5189565,19.5333931 37.938087,20.9551344 37.938087,22.6908436 C37.938087,24.4384007 36.5189565,25.860142 34.7746087,25.860142 C33.0302609,25.860142 31.62,24.4384007 31.62,22.6908436 C31.62,20.9551344 33.0302609,19.5333931 34.7746087,19.5333931 L34.7746087,19.5333931 Z M27.3833043,31.7603686 C31.4721739,31.7603686 34.7746087,35.0718411 34.7746087,39.1652713 C34.7746087,43.2498157 31.4721739,46.5701741 27.3833043,46.5701741 C23.2944348,46.5701741 19.992,43.2616636 19.992,39.1652713 C19.992,35.0718411 23.3062609,31.7603686 27.3833043,31.7603686 L27.3833043,31.7603686 Z" id="Fill-1"></path>
                <path d="M61.5902609,58.5690786 C61.5902609,58.5690786 61.5902609,58.5809265 61.5902609,58.5690786 C60.8393043,59.0222587 49.6961739,65.2927303 32.8233043,65.3253119 C15.9386087,65.2927303 4.80434783,59.0222587 4.04156522,58.5809265 L4.04156522,58.5690786 L0,64.9906103 C0.842608696,65.4882198 13.605913,72.7894539 32.8233043,72.8486932 C52.0406957,72.7894539 64.7892174,65.4882198 65.6318261,64.9906103 L61.5902609,58.5690786 Z" id="Fill-2"></path>
            </g>
        </g>
    </g>
</svg>