<?xml version="1.0" encoding="UTF-8" standalone="no"?>
<svg width="196px" height="57px" viewBox="0 0 196 57" version="1.1" xmlns="http://www.w3.org/2000/svg" xmlns:xlink="http://www.w3.org/1999/xlink">
    <!-- Generator: Sketch 39.1 (31720) - http://www.bohemiancoding.com/sketch -->
    <title>iPad Pro Portrait Copy</title>
    <desc>Created with Sketch.</desc>
    <defs>
        <rect id="path-1" x="0" y="0" width="196" height="57"></rect>
        <mask id="mask-2" maskContentUnits="userSpaceOnUse" maskUnits="objectBoundingBox" x="0" y="0" width="196" height="57" fill="white">
            <use xlink:href="#path-1"></use>
        </mask>
        <polygon id="path-3" points="12.96008 0 0.96488 0 0.96488 29.119552 12.96008 29.119552 12.96008 0"></polygon>
        <polygon id="path-5" points="0 29.12 168 29.12 168 0 0 0"></polygon>
    </defs>
    <g id="Page-1" stroke="none" stroke-width="1" fill="none" fill-rule="evenodd">
        <g id="iPad-Pro-Portrait-Copy">
            <g id="Group-2">
                <use id="Rectangle-3" stroke="#1D3557" mask="url(#mask-2)" stroke-width="10" xlink:href="#path-1"></use>
                <g id="Page-1" transform="translate(14.000000, 14.000000)">
                    <path d="M5.583536,3.231088 L3.308816,3.231088 L3.308816,15.132208 L5.583536,15.132208 C7.072016,15.132208 7.776496,14.436688 7.776496,12.965008 L7.776496,5.399408 C7.776496,3.926608 7.072016,3.231088 5.583536,3.231088 L5.583536,3.231088 Z M3.308816,28.873488 L0.000336,28.873488 L0.000336,0.245168 L5.707856,0.245168 C9.306416,0.245168 11.084976,2.004688 11.084976,5.562928 L11.084976,12.801488 C11.084976,16.359728 9.306416,18.118128 5.707856,18.118128 L3.308816,18.118128 L3.308816,28.873488 L3.308816,28.873488 Z" id="Fill-1" fill="#1D3557"></path>
                    <g id="Group-5" transform="translate(13.440000, 0.000000)">
                        <mask id="mask-4" fill="white">
                            <use xlink:href="#path-3"></use>
                        </mask>
                        <g id="Clip-4"></g>
                        <path d="M7.45864,2.985472 L6.46632,2.985472 C4.97672,2.985472 4.27336,3.680992 4.27336,5.153792 L4.27336,23.966432 C4.27336,25.438112 4.97672,26.134752 6.46632,26.134752 L7.45864,26.134752 C8.94712,26.134752 9.65048,25.438112 9.65048,23.966432 L9.65048,5.153792 C9.65048,3.680992 8.94712,2.985472 7.45864,2.985472 M7.58296,29.119552 L6.342,29.119552 C2.74344,29.119552 0.96488,27.361152 0.96488,23.802912 L0.96488,5.317312 C0.96488,1.759072 2.74344,-0.000448 6.342,-0.000448 L7.58296,-0.000448 C11.18152,-0.000448 12.96008,1.759072 12.96008,5.317312 L12.96008,23.802912 C12.96008,27.361152 11.18152,29.119552 7.58296,29.119552" id="Fill-3" fill="#1D3557" mask="url(#mask-4)"></path>
                    </g>
                    <path d="M35.55552,3.231088 L33.2808,3.231088 L33.2808,15.132208 L35.55552,15.132208 C37.044,15.132208 37.74848,14.436688 37.74848,12.965008 L37.74848,5.399408 C37.74848,3.926608 37.044,3.231088 35.55552,3.231088 L35.55552,3.231088 Z M33.2808,28.873488 L29.97232,28.873488 L29.97232,0.245168 L35.67984,0.245168 C39.2784,0.245168 41.05696,2.004688 41.05696,5.562928 L41.05696,12.801488 C41.05696,16.359728 39.2784,18.118128 35.67984,18.118128 L33.2808,18.118128 L33.2808,28.873488 Z" id="Fill-6" fill="#1D3557"></path>
                    <path d="M56.185584,23.803024 C56.185584,27.360144 54.407024,29.119664 50.808464,29.119664 L49.773584,29.119664 C46.176144,29.119664 44.397584,27.360144 44.397584,23.803024 L44.397584,0.244944 L47.706064,0.244944 L47.706064,23.966544 C47.706064,25.438224 48.409424,26.134864 49.899024,26.134864 L50.684144,26.134864 C52.173744,26.134864 52.875984,25.438224 52.875984,23.966544 L52.875984,0.244944 L56.185584,0.244944 L56.185584,23.803024 Z" id="Fill-8" fill="#1D3557"></path>
                    <polygon id="Fill-10" fill="#1D3557" points="63.099792 0.245504 63.099792 25.847584 68.559792 25.847584 68.559792 28.873824 59.791312 28.873824 59.791312 0.245504"></polygon>
                    <mask id="mask-6" fill="white">
                        <use xlink:href="#path-5"></use>
                    </mask>
                    <g id="Clip-13"></g>
                    <polygon id="Fill-12" fill="#1D3557" mask="url(#mask-6)" points="71.79648 28.8736 75.10608 28.8736 75.10608 0.24528 71.79648 0.24528"></polygon>
                    <path d="M90.181168,19.63024 L90.181168,23.80336 C90.181168,27.36048 88.402608,29.12 84.804048,29.12 L83.893488,29.12 C80.337488,29.12 78.600368,27.36048 78.600368,23.88512 L78.600368,17.87296 L81.825968,17.87296 L81.825968,24.0072 C81.825968,25.47888 82.529328,26.1744 84.017808,26.1744 L84.679728,26.1744 C86.168208,26.1744 86.872688,25.47888 86.872688,24.0072 L86.872688,19.712 C86.872688,18.28064 86.375408,17.668 85.424528,16.97248 L81.371248,14.06832 C79.220848,12.5552 78.600368,11.08352 78.600368,8.7528 L78.600368,5.31664 C78.600368,1.7584 80.378928,0 83.976368,0 L84.804048,0 C88.361168,0 90.098288,1.7584 90.098288,5.23488 L90.098288,10.388 L86.872688,10.388 L86.872688,5.1128 C86.872688,3.64 86.168208,2.94448 84.679728,2.94448 L84.100688,2.94448 C82.612208,2.94448 81.908848,3.64 81.908848,5.1128 L81.908848,8.71136 C81.908848,10.14272 82.446448,10.75648 83.398448,11.45088 L87.410288,14.31472 C89.519248,15.82784 90.181168,17.17744 90.181168,19.63024" id="Fill-14" fill="#1D3557" mask="url(#mask-6)"></path>
                    <polygon id="Fill-15" fill="#1D3557" mask="url(#mask-6)" points="97.318032 28.873936 97.318032 3.271856 92.975792 3.271856 92.975792 0.245616 104.969872 0.245616 104.969872 3.271856 100.627632 3.271856 100.627632 28.873936"></polygon>
                    <polygon id="Fill-16" fill="#1D3557" mask="url(#mask-6)" points="116.880512 0.245504 116.880512 25.847584 122.340512 25.847584 122.340512 28.873824 113.572032 28.873824 113.572032 0.245504"></polygon>
                    <path d="M129.404464,21.143584 L133.912464,21.143584 L131.679184,5.316864 L129.404464,21.143584 Z M138.296144,28.873824 L135.029104,28.873824 L134.326864,24.089184 L128.991184,24.089184 L128.329264,28.873824 L125.143984,28.873824 L129.610544,0.163744 L133.829584,0.163744 L138.296144,28.873824 Z" id="Fill-17" fill="#1D3557" mask="url(#mask-6)"></path>
                    <path d="M144.727184,25.929456 L147.499184,25.929456 C148.987664,25.929456 149.691024,25.233936 149.691024,23.762256 L149.691024,18.118576 C149.691024,16.482256 148.904784,15.704976 147.250544,15.704976 L144.727184,15.704976 L144.727184,25.929456 Z M147.416304,3.190096 L144.727184,3.190096 L144.727184,12.800816 L147.167664,12.800816 C148.821904,12.800816 149.608144,12.024656 149.608144,10.388336 L149.608144,5.358416 C149.608144,3.885616 148.904784,3.190096 147.416304,3.190096 L147.416304,3.190096 Z M152.958064,18.731216 L152.958064,23.557296 C152.958064,27.114416 151.179504,28.873936 147.582064,28.873936 L141.460144,28.873936 L141.460144,0.245616 L147.499184,0.245616 C151.096624,0.245616 152.876304,2.004016 152.876304,5.562256 L152.876304,9.774576 C152.876304,12.310256 152.007184,13.619536 150.351824,14.232176 C152.048624,14.887376 152.958064,16.195536 152.958064,18.731216 L152.958064,18.731216 Z" id="Fill-18" fill="#1D3557" mask="url(#mask-6)"></path>
                    <path d="M168,19.63024 L168,23.80336 C168,27.36048 166.22032,29.12 162.62288,29.12 L161.71232,29.12 C158.15632,29.12 156.41808,27.36048 156.41808,23.88512 L156.41808,17.87296 L159.6448,17.87296 L159.6448,24.0072 C159.6448,25.47888 160.34816,26.1744 161.83664,26.1744 L162.49856,26.1744 C163.98704,26.1744 164.6904,25.47888 164.6904,24.0072 L164.6904,19.712 C164.6904,18.28064 164.19424,17.668 163.24336,16.97248 L159.19008,14.06832 C157.03968,12.5552 156.41808,11.08352 156.41808,8.7528 L156.41808,5.31664 C156.41808,1.7584 158.19664,0 161.7952,0 L162.62288,0 C166.17888,0 167.91712,1.7584 167.91712,5.23488 L167.91712,10.388 L164.6904,10.388 L164.6904,5.1128 C164.6904,3.64 163.98704,2.94448 162.49856,2.94448 L161.91952,2.94448 C160.43104,2.94448 159.72656,3.64 159.72656,5.1128 L159.72656,8.71136 C159.72656,10.14272 160.26528,10.75648 161.21616,11.45088 L165.228,14.31472 C167.33696,15.82784 168,17.17744 168,19.63024" id="Fill-19" fill="#1D3557" mask="url(#mask-6)"></path>
                </g>
            </g>
        </g>
    </g>
</svg>