<?xml version="1.0" encoding="UTF-8" standalone="no"?>
<svg width="280px" height="104px" viewBox="0 0 280 104" version="1.1" xmlns="http://www.w3.org/2000/svg" xmlns:xlink="http://www.w3.org/1999/xlink">
    <!-- Generator: Sketch 3.8.3 (29802) - http://www.bohemiancoding.com/sketch -->
    <title>Page 1</title>
    <desc>Created with Sketch.</desc>
    <defs>
        <polygon id="path-1" points="0 0.35015015 0 101.438498 36.3870518 101.438498 36.3870518 0.35015015 7.46591132e-20 0.35015015"></polygon>
        <polygon id="path-3" points="0.307359944 103.794509 35.3423973 103.794509 35.3423973 0.495837623 0.307359944 0.495837623"></polygon>
        <polygon id="path-5" points="0.23643324 102.543973 35.1378805 102.543973 35.1378805 0.350525311 0.23643324 0.350525311"></polygon>
        <polygon id="path-7" points="0 104.549207 279.935994 104.549207 279.935994 1.24991098 0 1.24991098"></polygon>
    </defs>
    <g id="Landing" stroke="none" stroke-width="1" fill="none" fill-rule="evenodd">
        <g id="Desktop-HD-Landing" transform="translate(-580.000000, -172.000000)">
            <g id="Page-1" transform="translate(580.000000, 171.000000)">
                <g id="Group-3" transform="translate(0.000000, 2.005235)">
                    <mask id="mask-2" fill="white">
                        <use xlink:href="#path-1"></use>
                    </mask>
                    <g id="Clip-2"></g>
                    <path d="M26.2424673,18.6529987 C26.2424673,12.6341677 23.8061695,9.80920635 17.3153431,9.80920635 L10.2805159,9.80920635 L10.2805159,44.3227563 L17.4489332,44.3227563 C23.4012675,44.3227563 26.2424673,41.7441506 26.2424673,35.4802145 L26.2424673,18.6529987 Z M-0.000413165266,101.438498 L-0.000413165266,0.35015015 L17.3153431,0.35015015 C30.2997502,0.35015015 36.3870518,6.12387602 36.3870518,18.6529987 L36.3870518,35.2351094 C36.3870518,47.8855341 30.2997502,53.4129043 17.4489332,53.4129043 L10.2805159,53.4129043 L10.2805159,101.438498 L-0.000413165266,101.438498 Z" id="Fill-1" fill="#457BD9" mask="url(#mask-2)"></path>
                </g>
                <g id="Group-6" transform="translate(39.514472, 0.754699)">
                    <mask id="mask-4" fill="white">
                        <use xlink:href="#path-3"></use>
                    </mask>
                    <g id="Clip-5"></g>
                    <path d="M25.0614683,17.6919616 C25.0614683,12.6560521 22.7628922,9.95489382 17.7567063,9.95489382 C13.0232096,9.95489382 10.588289,12.6560521 10.588289,17.6919616 L10.588289,86.6002606 C10.588289,91.8800247 13.0232096,94.5824335 17.7567063,94.5824335 C22.7628922,94.5824335 25.0614683,91.8800247 25.0614683,86.6002606 L25.0614683,17.6919616 Z M0.307359944,17.6919616 C0.307359944,6.5146686 6.12472689,0.495837623 17.7567063,0.495837623 C29.6613749,0.495837623 35.3423973,6.5146686 35.3423973,17.6919616 L35.3423973,86.6002606 C35.3423973,97.7763031 29.6613749,103.795134 17.7567063,103.795134 C6.12472689,103.795134 0.307359944,97.7763031 0.307359944,86.6002606 L0.307359944,17.6919616 Z" id="Fill-4" fill="#457BD9" mask="url(#mask-4)"></path>
                </g>
                <path d="M105.86148,20.6582336 C105.86148,14.6394026 103.425182,11.8144412 96.9343557,11.8144412 L89.8995285,11.8144412 L89.8995285,46.3279912 L97.0679458,46.3279912 C103.02028,46.3279912 105.86148,43.7493855 105.86148,37.4854494 L105.86148,20.6582336 Z M79.6185994,103.443733 L79.6185994,2.35538503 L96.9343557,2.35538503 C109.918763,2.35538503 116.006064,8.1291109 116.006064,20.6582336 L116.006064,37.2403443 C116.006064,49.890769 109.918763,55.4181392 97.0679458,55.4181392 L89.8995285,55.4181392 L89.8995285,103.443733 L79.6185994,103.443733 Z" id="Fill-7" fill="#457BD9"></path>
                <g id="Group-11" transform="translate(119.393091, 2.005235)">
                    <mask id="mask-6" fill="white">
                        <use xlink:href="#path-5"></use>
                    </mask>
                    <g id="Clip-10"></g>
                    <path d="M24.8569514,0.350525311 L35.1378805,0.350525311 L35.1378805,85.3494743 C35.1378805,96.8944249 29.3205135,102.544348 17.6871569,102.544348 C6.05380019,102.544348 0.23643324,96.8944249 0.23643324,85.3494743 L0.23643324,0.350525311 L10.5173623,0.350525311 L10.5173623,85.3494743 C10.5173623,90.6292383 12.9522829,93.3328977 17.6871569,93.3328977 C22.4206536,93.3328977 24.8569514,90.6292383 24.8569514,85.3494743 L24.8569514,0.350525311 Z" id="Fill-9" fill="#457BD9" mask="url(#mask-6)"></path>
                </g>
                <polygon id="Fill-12" fill="#1D3557" points="159.466781 103.443983 159.466781 2.35563514 169.74771 2.35563514 169.74771 94.2325335 189.631977 94.2325335 189.631977 103.443983"></polygon>
                <mask id="mask-8" fill="white">
                    <use xlink:href="#path-7"></use>
                </mask>
                <g id="Clip-15"></g>
                <polygon id="Fill-14" fill="#1D3557" mask="url(#mask-8)" points="193.106559 103.443733 203.387488 103.443733 203.387488 2.35538503 193.106559 2.35538503"></polygon>
                <path d="M232.171473,73.4738818 C232.171473,67.4563014 231.495259,65.9819191 228.789027,63.0331547 C223.377939,57.1381268 217.968228,53.3302439 211.474648,46.2059389 C207.957234,42.398056 207.822267,38.7139762 207.822267,33.0640534 L207.822267,17.9550744 C207.822267,6.65522887 213.503289,1.2504112 225.138023,1.2504112 C237.446216,1.2504112 242.046123,6.65522887 242.046123,17.9550744 L242.046123,36.3804755 L232.441408,36.3804755 L232.441408,19.1843516 C232.441408,14.1484421 230.954013,10.7094674 225.407958,10.7094674 C220.403149,10.7094674 218.238163,12.919165 218.238163,17.9550744 L218.238163,32.9402503 C218.238163,37.1170414 218.644442,38.5901731 220.673084,40.8011212 C226.084171,46.9425047 231.765194,51.1192958 237.582561,57.2606793 C241.639844,61.560023 242.452402,65.2441027 242.452402,73.3513293 L242.452402,87.8450444 C242.452402,98.5308767 237.446216,104.549708 225.138023,104.549708 C213.09701,104.549708 207.822267,98.5308767 207.822267,87.8450444 L207.822267,66.3508273 L217.696916,66.3508273 L217.696916,86.4932147 C217.696916,91.6529273 219.457,95.3370071 224.866711,95.3370071 C230.007864,95.3370071 232.171473,92.7584013 232.171473,87.8450444 L232.171473,73.4738818 Z" id="Fill-16" fill="#1D3557" mask="url(#mask-8)"></path>
                <polygon id="Fill-17" fill="#1D3557" mask="url(#mask-8)" points="257.344669 103.443983 257.344669 11.8146913 244.900131 11.8146913 244.900131 2.35563514 279.935168 2.35563514 279.935168 11.8146913 267.49063 11.8146913 267.49063 103.443983"></polygon>
            </g>
        </g>
    </g>
</svg>