<?xml version="1.0" encoding="UTF-8" standalone="no"?>
<svg width="98px" height="37px" viewBox="0 0 98 37" version="1.1" xmlns="http://www.w3.org/2000/svg" xmlns:xlink="http://www.w3.org/1999/xlink">
    <!-- Generator: Sketch 3.8.3 (29802) - http://www.bohemiancoding.com/sketch -->
    <title>SmallLogo</title>
    <desc>Created with Sketch.</desc>
    <defs>
        <polygon id="path-1" points="0 0.121049383 0 35.0680062 12.6922971 35.0680062 12.6922971 0.121049383 2.6042111e-20 0.121049383"></polygon>
        <polygon id="path-3" points="0.439414706 35.8824956 12.6601108 35.8824956 12.6601108 0.171414572 0.439414706 0.171414572"></polygon>
        <polygon id="path-5" points="0.41467451 35.4501764 12.5887725 35.4501764 12.5887725 0.121179078 0.41467451 0.121179078"></polygon>
        <polygon id="path-7" points="0 36.1434002 97.6454706 36.1434002 97.6454706 0.432103064 0 0.432103064"></polygon>
    </defs>
    <g id="Landing" stroke="none" stroke-width="1" fill="none" fill-rule="evenodd">
        <g id="SmallLogo">
            <g id="Page-1">
                <g id="Group">
                    <g id="Group-3" transform="translate(0.000000, 0.693224)">
                        <mask id="mask-2" fill="white">
                            <use xlink:href="#path-1"></use>
                        </mask>
                        <g id="Clip-2"></g>
                        <path d="M9.15372843,6.44847354 C9.15372843,4.36772112 8.30391471,3.39111199 6.03982647,3.39111199 L3.58598333,3.39111199 L3.58598333,15.3226903 L6.08642451,15.3226903 C8.16267941,15.3226903 9.15372843,14.431248 9.15372843,12.265761 L9.15372843,6.44847354 Z M-0.000144117647,35.0680062 L-0.000144117647,0.121049383 L6.03982647,0.121049383 C10.5689637,0.121049383 12.6922971,2.11706724 12.6922971,6.44847354 L12.6922971,12.1810265 C12.6922971,16.5543677 10.5689637,18.4652187 6.08642451,18.4652187 L3.58598333,18.4652187 L3.58598333,35.0680062 L-0.000144117647,35.0680062 Z" id="Fill-1" fill="#457BD9" mask="url(#mask-2)"></path>
                    </g>
                    <g id="Group-6" transform="translate(13.450980, 0.260905)">
                        <mask id="mask-4" fill="white">
                            <use xlink:href="#path-3"></use>
                        </mask>
                        <g id="Clip-5"></g>
                        <path d="M9.07398333,6.11623622 C9.07398333,4.37528671 8.27220882,3.44147718 6.52598333,3.44147718 C4.87487549,3.44147718 4.02554216,4.37528671 4.02554216,6.11623622 L4.02554216,29.9383224 C4.02554216,31.7635742 4.87487549,32.697816 6.52598333,32.697816 C8.27220882,32.697816 9.07398333,31.7635742 9.07398333,29.9383224 L9.07398333,6.11623622 Z M0.439414706,6.11623622 C0.439414706,2.252167 2.46859118,0.171414572 6.52598333,0.171414572 C10.6784931,0.171414572 12.6601108,2.252167 12.6601108,6.11623622 L12.6601108,29.9383224 C12.6601108,33.8019593 10.6784931,35.8827118 6.52598333,35.8827118 C2.46859118,35.8827118 0.439414706,33.8019593 0.439414706,29.9383224 L0.439414706,6.11623622 Z" id="Fill-4" fill="#457BD9" mask="url(#mask-4)"></path>
                    </g>
                    <path d="M36.9259196,7.14169742 C36.9259196,5.060945 36.0761059,4.08433587 33.8120176,4.08433587 L31.3581745,4.08433587 L31.3581745,16.0159141 L33.8586157,16.0159141 C35.9348706,16.0159141 36.9259196,15.1244719 36.9259196,12.9589849 L36.9259196,7.14169742 Z M27.7720471,35.76123 L27.7720471,0.814273258 L33.8120176,0.814273258 C38.3411549,0.814273258 40.4644882,2.81029112 40.4644882,7.14169742 L40.4644882,12.8742503 C40.4644882,17.2475916 38.3411549,19.1584426 33.8586157,19.1584426 L31.3581745,19.1584426 L31.3581745,35.76123 L27.7720471,35.76123 Z" id="Fill-7" fill="#457BD9"></path>
                    <g id="Group-11" transform="translate(41.313725, 0.693224)">
                        <mask id="mask-6" fill="white">
                            <use xlink:href="#path-5"></use>
                        </mask>
                        <g id="Clip-10"></g>
                        <path d="M9.0026451,0.121179078 L12.5887725,0.121179078 L12.5887725,29.5059167 C12.5887725,33.4970878 10.5595961,35.4503061 6.50172353,35.4503061 C2.44385098,35.4503061 0.41467451,33.4970878 0.41467451,29.5059167 L0.41467451,0.121179078 L4.00080196,0.121179078 L4.00080196,29.5059167 C4.00080196,31.3311685 4.85013529,32.2658427 6.50172353,32.2658427 C8.15283137,32.2658427 9.0026451,31.3311685 9.0026451,29.5059167 L9.0026451,0.121179078 Z" id="Fill-9" fill="#457BD9" mask="url(#mask-6)"></path>
                    </g>
                    <polygon id="Fill-12" fill="#1D3557" points="55.6241755 35.7613165 55.6241755 0.814359722 59.2103029 0.814359722 59.2103029 32.5768531 66.1462049 32.5768531 66.1462049 35.7613165"></polygon>
                    <mask id="mask-8" fill="white">
                        <use xlink:href="#path-7"></use>
                    </mask>
                    <g id="Clip-15"></g>
                    <polygon id="Fill-14" fill="#1D3557" mask="url(#mask-8)" points="67.3581863 35.76123 70.9443137 35.76123 70.9443137 0.814273258 67.3581863 0.814273258"></polygon>
                    <path d="M80.9845578,25.4004405 C80.9845578,23.3201203 80.7486853,22.810416 79.8047147,21.7910073 C77.9172539,19.7530544 76.0302735,18.4366424 73.7652245,15.9737198 C72.5383029,14.6573077 72.4912245,13.3836953 72.4912245,11.4304771 L72.4912245,6.20719619 C72.4912245,2.30075968 74.4728422,0.432275992 78.5311951,0.432275992 C82.8244598,0.432275992 84.4289696,2.30075968 84.4289696,6.20719619 L84.4289696,12.5769876 L81.0787147,12.5769876 L81.0787147,6.63216598 C81.0787147,4.89121647 80.5598912,3.7023386 78.625352,3.7023386 C76.8796069,3.7023386 76.1244304,4.46624667 76.1244304,6.20719619 L76.1244304,11.3876774 C76.1244304,12.8316237 76.2661461,13.3408957 76.9737637,14.1052361 C78.8612245,16.2283558 80.8428422,17.672302 82.8720186,19.7954217 C84.2872539,21.2817352 84.5706853,22.5553476 84.5706853,25.3580732 L84.5706853,30.368653 C84.5706853,34.0628207 82.8244598,36.1435732 78.5311951,36.1435732 C74.3311265,36.1435732 72.4912245,34.0628207 72.4912245,30.368653 L72.4912245,22.9379502 L75.9356363,22.9379502 L75.9356363,29.9013159 C75.9356363,31.685065 76.5495775,32.9586774 78.4365578,32.9586774 C80.2298618,32.9586774 80.9845578,32.0672352 80.9845578,30.368653 L80.9845578,25.4004405 Z" id="Fill-16" fill="#1D3557" mask="url(#mask-8)"></path>
                    <polygon id="Fill-17" fill="#1D3557" mask="url(#mask-8)" points="89.7653098 35.7613165 89.7653098 4.08442233 85.4244863 4.08442233 85.4244863 0.814359722 97.6451824 0.814359722 97.6451824 4.08442233 93.3043588 4.08442233 93.3043588 35.7613165"></polygon>
                </g>
            </g>
        </g>
    </g>
</svg>