<?xml version="1.0" encoding="UTF-8" standalone="no"?>
<svg width="38px" height="31px" viewBox="0 0 38 31" version="1.1" xmlns="http://www.w3.org/2000/svg" xmlns:xlink="http://www.w3.org/1999/xlink">
    <!-- Generator: Sketch 3.8.3 (29802) - http://www.bohemiancoding.com/sketch -->
    <title>Twitter</title>
    <desc>Created with Sketch.</desc>
    <defs></defs>
    <g id="Landing" stroke="none" stroke-width="1" fill="none" fill-rule="evenodd">
        <g id="Custom-Preset-Copy-2" fill="#FFFFFF">
            <path d="M36.9519131,0.573099228 C35.4442101,1.46900131 33.7782287,2.12056647 31.997597,2.46919355 C30.5791792,0.949537022 28.5519985,0 26.3076923,0 C22.0057672,0 18.5145115,3.50414918 18.5145115,7.82573452 C18.5145115,8.43856333 18.5814754,9.03450706 18.7154033,9.60760629 C12.236136,9.28083048 6.49245721,6.16901093 2.64507516,1.42827849 C1.97340667,2.5883823 1.58988599,3.93422191 1.58988599,5.36647336 C1.58988599,8.08099708 2.96569033,10.4766909 5.05882039,11.8801384 C3.78244733,11.8423953 2.57811123,11.4868155 1.52495127,10.9037839 L1.52495127,11.0001282 C1.52495127,14.7933101 4.21263984,17.9577713 7.78202013,18.673897 C7.12861453,18.8576463 6.43868315,18.9490244 5.72744506,18.9490244 C5.2252156,18.9490244 4.7351614,18.9023421 4.26032628,18.8109641 C5.25260994,21.9188107 8.13002964,24.1824036 11.5421462,24.241998 C8.87474969,26.3426997 5.51133421,27.5941815 1.85977091,27.5941815 C1.23071583,27.5941815 0.608762983,27.5584249 0,27.4869117 C3.4496569,29.7038224 7.54967559,31 11.951032,31 C26.2924732,31 34.1323258,19.0771523 34.1323258,8.73454872 C34.1323258,8.39386755 34.1262382,8.05417962 34.1130484,7.72045112 C35.6359704,6.61596873 36.9590153,5.23933869 38,3.67002019 C36.6039036,4.29178815 35.100259,4.71292173 33.5235629,4.90163724 C35.133741,3.93422191 36.3695298,2.39966678 36.9519131,0.573099228" id="Twitter"></path>
        </g>
    </g>
</svg>