<?xml version="1.0" encoding="UTF-8" standalone="no"?>
<svg width="30px" height="25px" viewBox="0 0 30 25" version="1.1" xmlns="http://www.w3.org/2000/svg" xmlns:xlink="http://www.w3.org/1999/xlink">
    <!-- Generator: Sketch 3.8.3 (29802) - http://www.bohemiancoding.com/sketch -->
    <title>Twitter</title>
    <desc>Created with Sketch.</desc>
    <defs></defs>
    <g id="List-Detail" stroke="none" stroke-width="1" fill="none" fill-rule="evenodd">
        <g id="Desktop/Front-Facing-List-Bagels-Copy" transform="translate(-783.000000, -539.000000)" fill="#457BD9">
            <path d="M811.449351,539.809091 C810.291429,540.511948 809.011948,541.023117 807.644416,541.296623 C806.555065,540.104416 804.998182,539.359481 803.274545,539.359481 C799.970649,539.359481 797.289351,542.108571 797.289351,545.498961 C797.289351,545.97974 797.340779,546.447273 797.443636,546.896883 C792.467532,546.640519 788.056364,544.199221 785.101558,540.48 C784.585714,541.39013 784.291169,542.445974 784.291169,543.56961 C784.291169,545.699221 785.347792,547.578701 786.955325,548.67974 C785.975065,548.65013 785.05013,548.371169 784.241299,547.913766 L784.241299,547.989351 C784.241299,550.965195 786.305455,553.447792 789.046753,554.00961 C788.544935,554.153766 788.015065,554.225455 787.468831,554.225455 C787.083117,554.225455 786.706753,554.188831 786.342078,554.117143 C787.104156,556.555325 789.314026,558.331169 791.934545,558.377922 C789.885974,560.025974 787.302857,561.007792 784.498442,561.007792 C784.015325,561.007792 783.537662,560.97974 783.07013,560.923636 C785.719481,562.662857 788.868312,563.67974 792.248571,563.67974 C803.262857,563.67974 809.283896,554.325974 809.283896,546.211948 C809.283896,545.944675 809.279221,545.678182 809.269091,545.416364 C810.438701,544.54987 811.454805,543.46987 812.254286,542.238701 C811.182078,542.726494 810.027273,543.056883 808.816364,543.204935 C810.052987,542.445974 811.002078,541.242078 811.449351,539.809091" id="Twitter"></path>
        </g>
    </g>
</svg>