<?xml version="1.0" encoding="UTF-8" standalone="no"?>
<svg width="54px" height="73px" viewBox="0 0 54 73" version="1.1" xmlns="http://www.w3.org/2000/svg" xmlns:xlink="http://www.w3.org/1999/xlink">
    <!-- Generator: Sketch 3.8.3 (29802) - http://www.bohemiancoding.com/sketch -->
    <title>wine-glass</title>
    <desc>Created with Sketch.</desc>
    <defs>
        <polygon id="path-1" points="0.0105194805 0.0607987727 0.0105194805 14.8586775 0.0105194805 72.6403941 53.9985974 72.6403941 53.9985974 0.0607987727 27.0045584 0.0607987727"></polygon>
    </defs>
    <g id="Landing" stroke="none" stroke-width="1" fill="none" fill-rule="evenodd">
        <g id="Custom-Preset-Copy-8">
            <g id="wine-glass">
                <mask id="mask-2" fill="white">
                    <use xlink:href="#path-1"></use>
                </mask>
                <g id="Clip-2"></g>
                <path d="M17.9995325,18.2056976 L11.9993961,18.2056976 C11.9993961,21.2295528 13.4992987,26.0685342 16.4996299,28.790163 C19.1994545,31.8140182 23.0997273,33.3267412 26.9992987,33.3267412 L26.9992987,27.278147 C24.5996299,27.278147 22.1997857,26.3709374 20.6991818,24.556695 C18.899474,23.043972 17.9995325,21.2295528 17.9995325,18.2056976 L17.9995325,18.2056976 Z" id="Fill-1" fill="#FFFFFF" mask="url(#mask-2)"></path>
                <path d="M46.1987532,37.5602092 C51.2989481,32.1164214 53.9985974,25.1615014 53.9985974,18.2056976 C53.9985974,12.1571034 52.1988896,6.10939295 47.9986364,1.27041156 C47.3986753,0.36320197 46.4987338,0.0607987727 45.5987922,0.0607987727 L8.39980519,0.0607987727 C7.49986364,0.0607987727 6.6000974,0.36320197 6.00013636,1.27041156 C1.79988312,6.10939295 0,12.1571034 0,18.2056976 C0,25.1615014 2.69964935,32.1164214 7.79984416,37.5602092 C12.2993766,42.0960804 17.9995325,44.8182394 23.9996688,45.4230458 L23.9996688,66.5919767 L11.9993961,66.5919767 L11.9993961,72.6403941 L41.9992013,72.6403941 L41.9992013,66.5919767 L29.9989286,66.5919767 L29.9989286,45.1206426 C35.9990649,44.5158363 41.6985195,42.0967874 46.1987532,37.5602092 L46.1987532,37.5602092 Z M12.2993766,33.024338 C4.79951299,25.766131 3.89957143,15.1818424 9.89970779,6.10939295 L44.3988701,6.10939295 C50.099026,15.1818424 49.1983831,25.766131 41.9992013,33.024338 C33.5993961,41.4912741 20.3993766,41.4912741 12.2993766,33.024338 L12.2993766,33.024338 Z" id="Fill-3" fill="#FFFFFF" mask="url(#mask-2)"></path>
            </g>
        </g>
    </g>
</svg>