<?xml version="1.0" encoding="UTF-8" standalone="no"?>
<svg width="150px" height="26px" viewBox="0 0 150 26" version="1.1" xmlns="http://www.w3.org/2000/svg" xmlns:xlink="http://www.w3.org/1999/xlink">
    <!-- Generator: Sketch 39.1 (31720) - http://www.bohemiancoding.com/sketch -->
    <title>iPad Pro Portrait</title>
    <desc>Created with Sketch.</desc>
    <defs>
        <polygon id="path-1" points="11.5715 0 0.8615 0 0.8615 25.9996 11.5715 25.9996 11.5715 0"></polygon>
        <polygon id="path-3" points="0 26 150 26 150 0 0 0"></polygon>
    </defs>
    <g id="Page-1" stroke="none" stroke-width="1" fill="none" fill-rule="evenodd">
        <g id="iPad-Pro-Portrait">
            <g id="Page-1">
                <path d="M4.9853,2.8849 L2.9543,2.8849 L2.9543,13.5109 L4.9853,13.5109 C6.3143,13.5109 6.9433,12.8899 6.9433,11.5759 L6.9433,4.8209 C6.9433,3.5059 6.3143,2.8849 4.9853,2.8849 L4.9853,2.8849 Z M2.9543,25.7799 L0.0003,25.7799 L0.0003,0.2189 L5.0963,0.2189 C8.3093,0.2189 9.8973,1.7899 9.8973,4.9669 L9.8973,11.4299 C9.8973,14.6069 8.3093,16.1769 5.0963,16.1769 L2.9543,16.1769 L2.9543,25.7799 L2.9543,25.7799 Z" id="Fill-1" fill="#FFFFFF"></path>
                <g id="Group-5" transform="translate(12.000000, 0.000000)">
                    <mask id="mask-2" fill="white">
                        <use xlink:href="#path-1"></use>
                    </mask>
                    <g id="Clip-4"></g>
                    <path d="M6.6595,2.6656 L5.7735,2.6656 C4.4435,2.6656 3.8155,3.2866 3.8155,4.6016 L3.8155,21.3986 C3.8155,22.7126 4.4435,23.3346 5.7735,23.3346 L6.6595,23.3346 C7.9885,23.3346 8.6165,22.7126 8.6165,21.3986 L8.6165,4.6016 C8.6165,3.2866 7.9885,2.6656 6.6595,2.6656 M6.7705,25.9996 L5.6625,25.9996 C2.4495,25.9996 0.8615,24.4296 0.8615,21.2526 L0.8615,4.7476 C0.8615,1.5706 2.4495,-0.0004 5.6625,-0.0004 L6.7705,-0.0004 C9.9835,-0.0004 11.5715,1.5706 11.5715,4.7476 L11.5715,21.2526 C11.5715,24.4296 9.9835,25.9996 6.7705,25.9996" id="Fill-3" fill="#FFFFFF" mask="url(#mask-2)"></path>
                </g>
                <path d="M31.746,2.8849 L29.715,2.8849 L29.715,13.5109 L31.746,13.5109 C33.075,13.5109 33.704,12.8899 33.704,11.5759 L33.704,4.8209 C33.704,3.5059 33.075,2.8849 31.746,2.8849 L31.746,2.8849 Z M29.715,25.7799 L26.761,25.7799 L26.761,0.2189 L31.857,0.2189 C35.07,0.2189 36.658,1.7899 36.658,4.9669 L36.658,11.4299 C36.658,14.6069 35.07,16.1769 31.857,16.1769 L29.715,16.1769 L29.715,25.7799 Z" id="Fill-6" fill="#FFFFFF"></path>
                <path d="M50.1657,21.2527 C50.1657,24.4287 48.5777,25.9997 45.3647,25.9997 L44.4407,25.9997 C41.2287,25.9997 39.6407,24.4287 39.6407,21.2527 L39.6407,0.2187 L42.5947,0.2187 L42.5947,21.3987 C42.5947,22.7127 43.2227,23.3347 44.5527,23.3347 L45.2537,23.3347 C46.5837,23.3347 47.2107,22.7127 47.2107,21.3987 L47.2107,0.2187 L50.1657,0.2187 L50.1657,21.2527 Z" id="Fill-8" fill="#FFFFFF"></path>
                <polygon id="Fill-10" fill="#FFFFFF" points="56.3391 0.2192 56.3391 23.0782 61.2141 23.0782 61.2141 25.7802 53.3851 25.7802 53.3851 0.2192"></polygon>
                <mask id="mask-4" fill="white">
                    <use xlink:href="#path-3"></use>
                </mask>
                <g id="Clip-13"></g>
                <polygon id="Fill-12" fill="#FFFFFF" mask="url(#mask-4)" points="64.104 25.78 67.059 25.78 67.059 0.219 64.104 0.219"></polygon>
                <path d="M80.5189,17.527 L80.5189,21.253 C80.5189,24.429 78.9309,26 75.7179,26 L74.9049,26 C71.7299,26 70.1789,24.429 70.1789,21.326 L70.1789,15.958 L73.0589,15.958 L73.0589,21.435 C73.0589,22.749 73.6869,23.37 75.0159,23.37 L75.6069,23.37 C76.9359,23.37 77.5649,22.749 77.5649,21.435 L77.5649,17.6 C77.5649,16.322 77.1209,15.775 76.2719,15.154 L72.6529,12.561 C70.7329,11.21 70.1789,9.896 70.1789,7.815 L70.1789,4.747 C70.1789,1.57 71.7669,0 74.9789,0 L75.7179,0 C78.8939,0 80.4449,1.57 80.4449,4.674 L80.4449,9.275 L77.5649,9.275 L77.5649,4.565 C77.5649,3.25 76.9359,2.629 75.6069,2.629 L75.0899,2.629 C73.7609,2.629 73.1329,3.25 73.1329,4.565 L73.1329,7.778 C73.1329,9.056 73.6129,9.604 74.4629,10.224 L78.0449,12.781 C79.9279,14.132 80.5189,15.337 80.5189,17.527" id="Fill-14" fill="#FFFFFF" mask="url(#mask-4)"></path>
                <polygon id="Fill-15" fill="#FFFFFF" mask="url(#mask-4)" points="86.8911 25.7803 86.8911 2.9213 83.0141 2.9213 83.0141 0.2193 93.7231 0.2193 93.7231 2.9213 89.8461 2.9213 89.8461 25.7803"></polygon>
                <polygon id="Fill-16" fill="#FFFFFF" mask="url(#mask-4)" points="104.3576 0.2192 104.3576 23.0782 109.2326 23.0782 109.2326 25.7802 101.4036 25.7802 101.4036 0.2192"></polygon>
                <path d="M115.5397,18.8782 L119.5647,18.8782 L117.5707,4.7472 L115.5397,18.8782 Z M123.4787,25.7802 L120.5617,25.7802 L119.9347,21.5082 L115.1707,21.5082 L114.5797,25.7802 L111.7357,25.7802 L115.7237,0.1462 L119.4907,0.1462 L123.4787,25.7802 Z" id="Fill-17" fill="#FFFFFF" mask="url(#mask-4)"></path>
                <path d="M129.2207,23.1513 L131.6957,23.1513 C133.0247,23.1513 133.6527,22.5303 133.6527,21.2163 L133.6527,16.1773 C133.6527,14.7163 132.9507,14.0223 131.4737,14.0223 L129.2207,14.0223 L129.2207,23.1513 Z M131.6217,2.8483 L129.2207,2.8483 L129.2207,11.4293 L131.3997,11.4293 C132.8767,11.4293 133.5787,10.7363 133.5787,9.2753 L133.5787,4.7843 C133.5787,3.4693 132.9507,2.8483 131.6217,2.8483 L131.6217,2.8483 Z M136.5697,16.7243 L136.5697,21.0333 C136.5697,24.2093 134.9817,25.7803 131.7697,25.7803 L126.3037,25.7803 L126.3037,0.2193 L131.6957,0.2193 C134.9077,0.2193 136.4967,1.7893 136.4967,4.9663 L136.4967,8.7273 C136.4967,10.9913 135.7207,12.1603 134.2427,12.7073 C135.7577,13.2923 136.5697,14.4603 136.5697,16.7243 L136.5697,16.7243 Z" id="Fill-18" fill="#FFFFFF" mask="url(#mask-4)"></path>
                <path d="M150,17.527 L150,21.253 C150,24.429 148.411,26 145.199,26 L144.386,26 C141.211,26 139.659,24.429 139.659,21.326 L139.659,15.958 L142.54,15.958 L142.54,21.435 C142.54,22.749 143.168,23.37 144.497,23.37 L145.088,23.37 C146.417,23.37 147.045,22.749 147.045,21.435 L147.045,17.6 C147.045,16.322 146.602,15.775 145.753,15.154 L142.134,12.561 C140.214,11.21 139.659,9.896 139.659,7.815 L139.659,4.747 C139.659,1.57 141.247,0 144.46,0 L145.199,0 C148.374,0 149.926,1.57 149.926,4.674 L149.926,9.275 L147.045,9.275 L147.045,4.565 C147.045,3.25 146.417,2.629 145.088,2.629 L144.571,2.629 C143.242,2.629 142.613,3.25 142.613,4.565 L142.613,7.778 C142.613,9.056 143.094,9.604 143.943,10.224 L147.525,12.781 C149.408,14.132 150,15.337 150,17.527" id="Fill-19" fill="#FFFFFF" mask="url(#mask-4)"></path>
            </g>
        </g>
    </g>
</svg>